ffmpeg started on 2025-06-07 at 17:08:41
Report written to "D:\Convert\FFMetrics\reports\psnr_report-6.txt"
Log level: 32
Command line:
ffmpeg -hide_banner -nostdin -i "G:\\\xc0\xed\xe8\xec\xe5\\\xce\xed\xe3\xee\xe8\xed\xe3\xe8\\!_36_\xce\xf1\xe5\xed\xfc_2024\\DreamCast\\\xdd\xe9, \xd2\xee\xec\xe1\xee!\\\xd2\xc2-1\\[DC] Ooi! Tonbo - 04_Telegram_HEVC.mkv" -i "G:\\\xc0\xed\xe8\xec\xe5\\\xce\xed\xe3\xee\xe8\xed\xe3\xe8\\!_36_\xce\xf1\xe5\xed\xfc_2024\\DreamCast\\\xdd\xe9, \xd2\xee\xec\xe1\xee!\\\xd2\xc2-1\\[DC] Ooi! Tonbo - 04_Telegram.mp4" -lavfi "[0:v]settb=AVTB,setpts=PTS-STARTPTS,format=pix_fmts=yuv420p10,fps=24000/1001,scale=1920:1080:flags=bicubic[main];[1:v]settb=AVTB,setpts=PTS-STARTPTS,format=pix_fmts=yuv420p,fps=24000/1001,scale=1920:1080:flags=bicubic[ref];[main][ref]psnr=eof_action=endall:stats_file='D\\:/Convert/FFMetrics/logs/psnr_logfile-6.txt'" -f null -
Input #0, matroska,webm, from 'G:\Аниме\Онгоинги\!_36_Осень_2024\DreamCast\Эй, Томбо!\ТВ-1\[DC] Ooi! Tonbo - 04_Telegram_HEVC.mkv':
  Metadata:
    COMPATIBLE_BRANDS: isomiso2avc1mp41
    MAJOR_BRAND     : isom
    MINOR_VERSION   : 512
    ENCODER         : Lavf61.7.100
  Duration: 00:24:20.87, start: -0.021000, bitrate: 1227 kb/s
  Stream #0:0: Video: hevc (Main 10), yuv420p10le(tv, bt709, progressive), 1920x1080 [SAR 1:1 DAR 16:9], 23.98 fps, 23.98 tbr, 1k tbn (default)
      Metadata:
        HANDLER_NAME    : VideoHandler
        VENDOR_ID       : [0][0][0][0]
        ENCODER         : Lavc61.19.100 libx265
        BPS             : 1031224
        DURATION        : 00:24:19.666708333
        NUMBER_OF_FRAMES: 34997
        NUMBER_OF_BYTES : 188155431
        _STATISTICS_WRITING_APP: mkvpropedit v66.0.0 ('Josie') 64-bit
        _STATISTICS_WRITING_DATE_UTC: 2025-06-05 13:50:22
        _STATISTICS_TAGS: BPS DURATION NUMBER_OF_FRAMES NUMBER_OF_BYTES
  Stream #0:1: Audio: aac (LC), 48000 Hz, stereo, fltp (default)
      Metadata:
        HANDLER_NAME    : SoundHandler
        VENDOR_ID       : [0][0][0][0]
        ENCODER         : Lavc61.19.100 aac
        BPS             : 193338
        DURATION        : 00:24:20.864000000
        NUMBER_OF_FRAMES: 68479
        NUMBER_OF_BYTES : 35305115
        _STATISTICS_WRITING_APP: mkvpropedit v66.0.0 ('Josie') 64-bit
        _STATISTICS_WRITING_DATE_UTC: 2025-06-05 13:50:22
        _STATISTICS_TAGS: BPS DURATION NUMBER_OF_FRAMES NUMBER_OF_BYTES
Input #1, mov,mp4,m4a,3gp,3g2,mj2, from 'G:\Аниме\Онгоинги\!_36_Осень_2024\DreamCast\Эй, Томбо!\ТВ-1\[DC] Ooi! Tonbo - 04_Telegram.mp4':
  Metadata:
    major_brand     : isom
    minor_version   : 512
    compatible_brands: isomiso2avc1mp41
    encoder         : Lavf60.16.100
  Duration: 00:24:20.83, start: 0.000000, bitrate: 3549 kb/s
  Stream #1:0[0x1](und): Video: h264 (High) (avc1 / 0x31637661), yuv420p(tv, bt709, progressive), 1920x1080 [SAR 1:1 DAR 16:9], 3404 kb/s, 23.98 fps, 23.98 tbr, 24k tbn (default)
      Metadata:
        handler_name    : VideoHandler
        vendor_id       : [0][0][0][0]
        encoder         : Lavc60.31.102 h264_qsv
  Stream #1:1[0x2](und): Audio: aac (HE-AACv2) (mp4a / 0x6134706D), 48000 Hz, stereo, fltp, 144 kb/s (default)
      Metadata:
        handler_name    : SoundHandler
        vendor_id       : [0][0][0][0]
Stream mapping:
  Stream #0:0 (hevc) -> settb:default
  Stream #1:0 (h264) -> settb:default
  psnr:default -> Stream #0:0 (wrapped_avframe)
  Stream #0:1 -> #0:1 (aac (native) -> pcm_s16le (native))
Output #0, null, to 'pipe:':
  Metadata:
    COMPATIBLE_BRANDS: isomiso2avc1mp41
    MAJOR_BRAND     : isom
    MINOR_VERSION   : 512
    encoder         : Lavf61.7.100
  Stream #0:0: Video: wrapped_avframe, yuv420p10le(tv, bt709, progressive), 1920x1080 [SAR 1:1 DAR 16:9], q=2-31, 200 kb/s, 23.98 fps, 23.98 tbn
      Metadata:
        encoder         : Lavc61.19.100 wrapped_avframe
  Stream #0:1: Audio: pcm_s16le, 48000 Hz, stereo, s16, 1536 kb/s (default)
      Metadata:
        HANDLER_NAME    : SoundHandler
        VENDOR_ID       : [0][0][0][0]
        _STATISTICS_TAGS: BPS DURATION NUMBER_OF_FRAMES NUMBER_OF_BYTES
        BPS             : 193338
        DURATION        : 00:24:20.864000000
        NUMBER_OF_FRAMES: 68479
        NUMBER_OF_BYTES : 35305115
        _STATISTICS_WRITING_APP: mkvpropedit v66.0.0 ('Josie') 64-bit
        _STATISTICS_WRITING_DATE_UTC: 2025-06-05 13:50:22
        encoder         : Lavc61.19.100 pcm_s16le
frame=  170 fps=0.0 q=-0.0 size=N/A time=00:00:07.09 bitrate=N/A speed=13.6x    frame=  387 fps=374 q=-0.0 size=N/A time=00:00:16.14 bitrate=N/A speed=15.6x    frame=  637 fps=409 q=-0.0 size=N/A time=00:00:26.56 bitrate=N/A speed=17.1x    frame=  909 fps=440 q=-0.0 size=N/A time=00:00:37.91 bitrate=N/A speed=18.3x    frame= 1172 fps=455 q=-0.0 size=N/A time=00:00:48.88 bitrate=N/A speed=  19x    frame= 1447 fps=466 q=-0.0 size=N/A time=00:01:00.35 bitrate=N/A speed=19.4x    frame= 1708 fps=473 q=-0.0 size=N/A time=00:01:11.23 bitrate=N/A speed=19.7x    frame= 1908 fps=463 q=-0.0 size=N/A time=00:01:19.57 bitrate=N/A speed=19.3x    frame= 2132 fps=459 q=-0.0 size=N/A time=00:01:28.92 bitrate=N/A speed=19.1x    frame= 2349 fps=455 q=-0.0 size=N/A time=00:01:37.97 bitrate=N/A speed=  19x    frame= 2555 fps=451 q=-0.0 size=N/A time=00:01:46.56 bitrate=N/A speed=18.8x    frame= 2789 fps=450 q=-0.0 size=N/A time=00:01:56.32 bitrate=N/A speed=18.8x    frame= 3000 fps=447 q=-0.0 size=N/A time=00:02:05.12 bitrate=N/A speed=18.7x    frame= 3213 fps=445 q=-0.0 size=N/A time=00:02:14.00 bitrate=N/A speed=18.6x    frame= 3432 fps=443 q=-0.0 size=N/A time=00:02:23.14 bitrate=N/A speed=18.5x    frame= 3624 fps=439 q=-0.0 size=N/A time=00:02:31.15 bitrate=N/A speed=18.3x    frame= 3891 fps=444 q=-0.0 size=N/A time=00:02:42.28 bitrate=N/A speed=18.5x    frame= 4170 fps=449 q=-0.0 size=N/A time=00:02:53.92 bitrate=N/A speed=18.7x    frame= 4413 fps=450 q=-0.0 size=N/A time=00:03:04.05 bitrate=N/A speed=18.8x    frame= 4602 fps=446 q=-0.0 size=N/A time=00:03:11.94 bitrate=N/A speed=18.6x    frame= 4849 fps=447 q=-0.0 size=N/A time=00:03:22.24 bitrate=N/A speed=18.7x    frame= 5084 fps=448 q=-0.0 size=N/A time=00:03:32.04 bitrate=N/A speed=18.7x    frame= 5348 fps=451 q=-0.0 size=N/A time=00:03:43.05 bitrate=N/A speed=18.8x    frame= 5615 fps=454 q=-0.0 size=N/A time=00:03:54.19 bitrate=N/A speed=18.9x    frame= 5822 fps=451 q=-0.0 size=N/A time=00:04:02.82 bitrate=N/A speed=18.8x    frame= 6034 fps=450 q=-0.0 size=N/A time=00:04:11.66 bitrate=N/A speed=18.8x    frame= 6202 fps=445 q=-0.0 size=N/A time=00:04:18.67 bitrate=N/A speed=18.6x    frame= 6436 fps=446 q=-0.0 size=N/A time=00:04:28.43 bitrate=N/A speed=18.6x    frame= 6677 fps=446 q=-0.0 size=N/A time=00:04:38.48 bitrate=N/A speed=18.6x    frame= 6939 fps=449 q=-0.0 size=N/A time=00:04:49.41 bitrate=N/A speed=18.7x    frame= 7174 fps=449 q=-0.0 size=N/A time=00:04:59.21 bitrate=N/A speed=18.7x    frame= 7391 fps=448 q=-0.0 size=N/A time=00:05:08.26 bitrate=N/A speed=18.7x    frame= 7644 fps=449 q=-0.0 size=N/A time=00:05:18.81 bitrate=N/A speed=18.7x    frame= 7904 fps=451 q=-0.0 size=N/A time=00:05:29.66 bitrate=N/A speed=18.8x    frame= 8172 fps=453 q=-0.0 size=N/A time=00:05:40.84 bitrate=N/A speed=18.9x    frame= 8420 fps=453 q=-0.0 size=N/A time=00:05:51.18 bitrate=N/A speed=18.9x    frame= 8658 fps=454 q=-0.0 size=N/A time=00:06:01.11 bitrate=N/A speed=18.9x    frame= 8900 fps=454 q=-0.0 size=N/A time=00:06:11.20 bitrate=N/A speed=18.9x    frame= 9134 fps=454 q=-0.0 size=N/A time=00:06:20.96 bitrate=N/A speed=18.9x    frame= 9391 fps=455 q=-0.0 size=N/A time=00:06:31.68 bitrate=N/A speed=  19x    frame= 9665 fps=457 q=-0.0 size=N/A time=00:06:43.11 bitrate=N/A speed=19.1x    frame= 9924 fps=458 q=-0.0 size=N/A time=00:06:53.91 bitrate=N/A speed=19.1x    frame=10159 fps=458 q=-0.0 size=N/A time=00:07:03.71 bitrate=N/A speed=19.1x    frame=10421 fps=459 q=-0.0 size=N/A time=00:07:14.64 bitrate=N/A speed=19.2x    frame=10681 fps=460 q=-0.0 size=N/A time=00:07:25.48 bitrate=N/A speed=19.2x    frame=10958 fps=462 q=-0.0 size=N/A time=00:07:37.03 bitrate=N/A speed=19.3x    frame=11196 fps=462 q=-0.0 size=N/A time=00:07:46.96 bitrate=N/A speed=19.3x    frame=11458 fps=462 q=-0.0 size=N/A time=00:07:57.89 bitrate=N/A speed=19.3x    frame=11693 fps=462 q=-0.0 size=N/A time=00:08:07.69 bitrate=N/A speed=19.3x    frame=11971 fps=464 q=-0.0 size=N/A time=00:08:19.29 bitrate=N/A speed=19.4x    frame=12222 fps=465 q=-0.0 size=N/A time=00:08:29.75 bitrate=N/A speed=19.4x    frame=12497 fps=466 q=-0.0 size=N/A time=00:08:41.22 bitrate=N/A speed=19.4x    frame=12768 fps=467 q=-0.0 size=N/A time=00:08:52.53 bitrate=N/A speed=19.5x    frame=13029 fps=468 q=-0.0 size=N/A time=00:09:03.41 bitrate=N/A speed=19.5x    frame=13291 fps=468 q=-0.0 size=N/A time=00:09:14.34 bitrate=N/A speed=19.5x    frame=13539 fps=468 q=-0.0 size=N/A time=00:09:24.68 bitrate=N/A speed=19.5x    frame=13779 fps=469 q=-0.0 size=N/A time=00:09:34.69 bitrate=N/A speed=19.5x    frame=14036 fps=469 q=-0.0 size=N/A time=00:09:45.41 bitrate=N/A speed=19.6x    frame=14298 fps=470 q=-0.0 size=N/A time=00:09:56.34 bitrate=N/A speed=19.6x    frame=14511 fps=469 q=-0.0 size=N/A time=00:10:05.22 bitrate=N/A speed=19.5x    frame=14780 fps=470 q=-0.0 size=N/A time=00:10:16.44 bitrate=N/A speed=19.6x    frame=15049 fps=470 q=-0.0 size=N/A time=00:10:27.66 bitrate=N/A speed=19.6x    frame=15320 fps=471 q=-0.0 size=N/A time=00:10:38.97 bitrate=N/A speed=19.7x    frame=15563 fps=471 q=-0.0 size=N/A time=00:10:49.10 bitrate=N/A speed=19.7x    frame=15815 fps=472 q=-0.0 size=N/A time=00:10:59.61 bitrate=N/A speed=19.7x    frame=16044 fps=471 q=-0.0 size=N/A time=00:11:09.16 bitrate=N/A speed=19.7x    frame=16291 fps=471 q=-0.0 size=N/A time=00:11:19.47 bitrate=N/A speed=19.7x    frame=16539 fps=471 q=-0.0 size=N/A time=00:11:29.81 bitrate=N/A speed=19.7x    frame=16752 fps=471 q=-0.0 size=N/A time=00:11:38.69 bitrate=N/A speed=19.6x    frame=16980 fps=470 q=-0.0 size=N/A time=00:11:48.20 bitrate=N/A speed=19.6x    frame=17244 fps=471 q=-0.0 size=N/A time=00:11:59.21 bitrate=N/A speed=19.6x    frame=17528 fps=472 q=-0.0 size=N/A time=00:12:11.06 bitrate=N/A speed=19.7x    frame=17779 fps=472 q=-0.0 size=N/A time=00:12:21.53 bitrate=N/A speed=19.7x    frame=18008 fps=472 q=-0.0 size=N/A time=00:12:31.08 bitrate=N/A speed=19.7x    frame=18195 fps=470 q=-0.0 size=N/A time=00:12:38.88 bitrate=N/A speed=19.6x    frame=18467 fps=471 q=-0.0 size=N/A time=00:12:50.22 bitrate=N/A speed=19.6x    frame=18726 fps=471 q=-0.0 size=N/A time=00:13:01.03 bitrate=N/A speed=19.7x    frame=19003 fps=472 q=-0.0 size=N/A time=00:13:12.58 bitrate=N/A speed=19.7x    frame=19262 fps=473 q=-0.0 size=N/A time=00:13:23.38 bitrate=N/A speed=19.7x    frame=19542 fps=474 q=-0.0 size=N/A time=00:13:35.06 bitrate=N/A speed=19.7x    frame=19819 fps=474 q=-0.0 size=N/A time=00:13:46.61 bitrate=N/A speed=19.8x    frame=19977 fps=472 q=-0.0 size=N/A time=00:13:53.20 bitrate=N/A speed=19.7x    frame=20233 fps=473 q=-0.0 size=N/A time=00:14:03.88 bitrate=N/A speed=19.7x    frame=20497 fps=473 q=-0.0 size=N/A time=00:14:14.89 bitrate=N/A speed=19.7x    frame=20753 fps=473 q=-0.0 size=N/A time=00:14:25.57 bitrate=N/A speed=19.7x    frame=21010 fps=474 q=-0.0 size=N/A time=00:14:36.29 bitrate=N/A speed=19.8x    frame=21250 fps=474 q=-0.0 size=N/A time=00:14:46.30 bitrate=N/A speed=19.8x    frame=21454 fps=473 q=-0.0 size=N/A time=00:14:54.85 bitrate=N/A speed=19.7x    frame=21700 fps=473 q=-0.0 size=N/A time=00:15:05.07 bitrate=N/A speed=19.7x    frame=21930 fps=472 q=-0.0 size=N/A time=00:15:14.66 bitrate=N/A speed=19.7x    frame=22155 fps=472 q=-0.0 size=N/A time=00:15:24.04 bitrate=N/A speed=19.7x    frame=22381 fps=472 q=-0.0 size=N/A time=00:15:33.47 bitrate=N/A speed=19.7x    frame=22587 fps=471 q=-0.0 size=N/A time=00:15:42.06 bitrate=N/A speed=19.6x    frame=22811 fps=470 q=-0.0 size=N/A time=00:15:51.40 bitrate=N/A speed=19.6x    frame=23011 fps=470 q=-0.0 size=N/A time=00:15:59.75 bitrate=N/A speed=19.6x    frame=23227 fps=469 q=-0.0 size=N/A time=00:16:08.75 bitrate=N/A speed=19.6x    frame=23427 fps=468 q=-0.0 size=N/A time=00:16:17.10 bitrate=N/A speed=19.5x    frame=23663 fps=468 q=-0.0 size=N/A time=00:16:26.94 bitrate=N/A speed=19.5x    frame=23879 fps=468 q=-0.0 size=N/A time=00:16:35.95 bitrate=N/A speed=19.5x    frame=24096 fps=467 q=-0.0 size=N/A time=00:16:45.00 bitrate=N/A speed=19.5x    frame=24293 fps=466 q=-0.0 size=N/A time=00:16:53.22 bitrate=N/A speed=19.4x    frame=24553 fps=467 q=-0.0 size=N/A time=00:17:04.06 bitrate=N/A speed=19.5x    frame=24806 fps=467 q=-0.0 size=N/A time=00:17:14.61 bitrate=N/A speed=19.5x    frame=25034 fps=467 q=-0.0 size=N/A time=00:17:24.12 bitrate=N/A speed=19.5x    frame=25269 fps=467 q=-0.0 size=N/A time=00:17:33.92 bitrate=N/A speed=19.5x    frame=25423 fps=465 q=-0.0 size=N/A time=00:17:40.35 bitrate=N/A speed=19.4x    frame=25620 fps=464 q=-0.0 size=N/A time=00:17:48.56 bitrate=N/A speed=19.4x    frame=25836 fps=464 q=-0.0 size=N/A time=00:17:57.57 bitrate=N/A speed=19.3x    frame=26083 fps=464 q=-0.0 size=N/A time=00:18:07.87 bitrate=N/A speed=19.4x    frame=26356 fps=465 q=-0.0 size=N/A time=00:18:19.26 bitrate=N/A speed=19.4x    frame=26600 fps=465 q=-0.0 size=N/A time=00:18:29.44 bitrate=N/A speed=19.4x    frame=26834 fps=465 q=-0.0 size=N/A time=00:18:39.20 bitrate=N/A speed=19.4x    frame=27054 fps=464 q=-0.0 size=N/A time=00:18:48.37 bitrate=N/A speed=19.4x    frame=27256 fps=464 q=-0.0 size=N/A time=00:18:56.80 bitrate=N/A speed=19.3x    frame=27519 fps=464 q=-0.0 size=N/A time=00:19:07.77 bitrate=N/A speed=19.4x    frame=27763 fps=464 q=-0.0 size=N/A time=00:19:17.94 bitrate=N/A speed=19.4x    frame=28023 fps=464 q=-0.0 size=N/A time=00:19:28.79 bitrate=N/A speed=19.4x    frame=28283 fps=465 q=-0.0 size=N/A time=00:19:39.63 bitrate=N/A speed=19.4x    frame=28531 fps=465 q=-0.0 size=N/A time=00:19:49.98 bitrate=N/A speed=19.4x    frame=28765 fps=465 q=-0.0 size=N/A time=00:19:59.74 bitrate=N/A speed=19.4x    frame=29013 fps=465 q=-0.0 size=N/A time=00:20:10.08 bitrate=N/A speed=19.4x    frame=29258 fps=465 q=-0.0 size=N/A time=00:20:20.30 bitrate=N/A speed=19.4x    frame=29497 fps=465 q=-0.0 size=N/A time=00:20:30.27 bitrate=N/A speed=19.4x    frame=29735 fps=465 q=-0.0 size=N/A time=00:20:40.19 bitrate=N/A speed=19.4x    frame=30020 fps=466 q=-0.0 size=N/A time=00:20:52.08 bitrate=N/A speed=19.4x    frame=30283 fps=466 q=-0.0 size=N/A time=00:21:03.05 bitrate=N/A speed=19.4x    frame=30551 fps=466 q=-0.0 size=N/A time=00:21:14.23 bitrate=N/A speed=19.4x    frame=30815 fps=467 q=-0.0 size=N/A time=00:21:25.24 bitrate=N/A speed=19.5x    frame=31053 fps=467 q=-0.0 size=N/A time=00:21:35.16 bitrate=N/A speed=19.5x    frame=31312 fps=467 q=-0.0 size=N/A time=00:21:45.97 bitrate=N/A speed=19.5x    frame=31564 fps=467 q=-0.0 size=N/A time=00:21:56.48 bitrate=N/A speed=19.5x    frame=31811 fps=467 q=-0.0 size=N/A time=00:22:06.78 bitrate=N/A speed=19.5x    frame=32054 fps=467 q=-0.0 size=N/A time=00:22:16.91 bitrate=N/A speed=19.5x    frame=32278 fps=467 q=-0.0 size=N/A time=00:22:26.26 bitrate=N/A speed=19.5x    frame=32515 fps=467 q=-0.0 size=N/A time=00:22:36.14 bitrate=N/A speed=19.5x    frame=32728 fps=466 q=-0.0 size=N/A time=00:22:45.03 bitrate=N/A speed=19.5x    frame=32975 fps=467 q=-0.0 size=N/A time=00:22:55.33 bitrate=N/A speed=19.5x    frame=33187 fps=466 q=-0.0 size=N/A time=00:23:04.17 bitrate=N/A speed=19.4x    frame=33409 fps=466 q=-0.0 size=N/A time=00:23:13.43 bitrate=N/A speed=19.4x    frame=33640 fps=466 q=-0.0 size=N/A time=00:23:23.06 bitrate=N/A speed=19.4x    frame=33852 fps=465 q=-0.0 size=N/A time=00:23:31.91 bitrate=N/A speed=19.4x    frame=34078 fps=465 q=-0.0 size=N/A time=00:23:41.33 bitrate=N/A speed=19.4x    frame=34294 fps=465 q=-0.0 size=N/A time=00:23:50.34 bitrate=N/A speed=19.4x    frame=34494 fps=464 q=-0.0 size=N/A time=00:23:58.68 bitrate=N/A speed=19.4x    frame=34756 fps=465 q=-0.0 size=N/A time=00:24:09.61 bitrate=N/A speed=19.4x    [Parsed_psnr_10 @ 000002b6012960c0] PSNR y:49.047049 u:50.710831 v:51.201425 average:49.593456 min:40.589372 max:inf
[out#0/null @ 000002b67e3a4200] video:15038KiB audio:273916KiB subtitle:0KiB other streams:0KiB global headers:0KiB muxing overhead: unknown
frame=34997 fps=465 q=-0.0 Lsize=N/A time=00:24:19.66 bitrate=N/A speed=19.4x    
